HIERARCHY
ROOT Hips
{
	OFFSET -3.958830 18.904000 13.208200
	CHANNELS 6 Xposition Yposition Zposition Zrotation Yrotation Xrotation 
	JOINT LHipJoint
	{
		OFFSET 0.000000 0.000000 0.000000
		CHANNELS 3 Zrotation Yrotation Xrotation
		JOINT LeftUpLeg
		{
			OFFSET 1.800000 -1.400000 0.085000
			CHANNELS 3 Zrotation Yrotation Xrotation
			JOINT LeftLeg
			{
				OFFSET 2.215000 -6.000000 0.000000
				CHANNELS 3 Zrotation Yrotation Xrotation
				JOINT LeftFoot
				{
					OFFSET 2.500000 -6.900000 0.000000
					CHANNELS 3 Zrotation Yrotation Xrotation
					JOINT LeftToeBase
					{
						OFFSET 0.200000 -0.500000 1.950000
						CHANNELS 3 Zrotation Yrotation Xrotation
						End Site
						{
							OFFSET 0.000000 0.000000 0.000000
						}
					}
				}
			}
		}
	}
	JOINT RHipJoint
	{
		OFFSET 0.000000 0.000000 0.000000
		CHANNELS 3 Zrotation Yrotation Xrotation
		JOINT RightUpLeg
		{
			OFFSET -1.800000 -1.400000 0.085000
			CHANNELS 3 Zrotation Yrotation Xrotation
			JOINT RightLeg
			{
				OFFSET -2.215000 -6.000000 0.000000
				CHANNELS 3 Zrotation Yrotation Xrotation
				JOINT RightFoot
				{
					OFFSET -2.500000 -6.900000 0.000000
					CHANNELS 3 Zrotation Yrotation Xrotation
					JOINT RightToeBase
					{
						OFFSET -0.200000 -0.500000 1.950000
						CHANNELS 3 Zrotation Yrotation Xrotation
						End Site
						{
							OFFSET 0.000000 0.000000 0.000000
						}
					}
				}
			}
		}
	}
	JOINT LowerBack
	{
		OFFSET 0.000000 0.000000 0.000000
		CHANNELS 3 Zrotation Yrotation Xrotation
		JOINT Spine
		{
			OFFSET -0.087000 1.940000 -0.288900
			CHANNELS 3 Zrotation Yrotation Xrotation
			JOINT Spine1
			{
				OFFSET 0.000000 1.950000 0.060000
				CHANNELS 3 Zrotation Yrotation Xrotation
				JOINT Neck
				{
					OFFSET 0.000000 0.000000 0.000000
					CHANNELS 3 Zrotation Yrotation Xrotation
					JOINT Neck1
					{
						OFFSET 0.000000 1.600000 0.340000
						CHANNELS 3 Zrotation Yrotation Xrotation
						JOINT Head
						{
							OFFSET 0.000000 1.667000 -0.240000
							CHANNELS 3 Zrotation Yrotation Xrotation
							End Site
							{
								OFFSET 0.000000 0.000000 0.000000
							}
						}
					}
				}
				JOINT LeftShoulder
				{
					OFFSET 0.000000 0.000000 0.000000
					CHANNELS 3 Zrotation Yrotation Xrotation
					JOINT LeftArm
					{
						OFFSET 2.700000 1.550000 -0.730000
						CHANNELS 3 Zrotation Yrotation Xrotation
						JOINT LeftForeArm
						{
							OFFSET 5.450000 0.000000 0.000000
							CHANNELS 3 Zrotation Yrotation Xrotation
							JOINT LeftHand
							{
								OFFSET 3.450000 0.000000 0.000000
								CHANNELS 3 Zrotation Yrotation Xrotation
								JOINT LeftHandIndex1
								{
									OFFSET 0.750000 0.000000 0.000000
									CHANNELS 3 Zrotation Yrotation Xrotation
									End Site
									{
										OFFSET 0.000000 0.000000 0.000000
									}
								}
							}
						}
					}
				}
				JOINT RightShoulder
				{
					OFFSET 0.000000 0.000000 0.000000
					CHANNELS 3 Zrotation Yrotation Xrotation
					JOINT RightArm
					{
						OFFSET -2.700000 1.550000 -0.730000
						CHANNELS 3 Zrotation Yrotation Xrotation
						JOINT RightForeArm
						{
							OFFSET -5.450000 0.000000 0.000000
							CHANNELS 3 Zrotation Yrotation Xrotation
							JOINT RightHand
							{
								OFFSET -3.450000 0.000000 0.000000
								CHANNELS 3 Zrotation Yrotation Xrotation
								JOINT RightHandIndex1
								{
									OFFSET -0.750000 0.000000 0.000000
									CHANNELS 3 Zrotation Yrotation Xrotation
									End Site
									{
										OFFSET 0.000000 0.000000 0.000000
									}
								}
							}
						}
					}
				}
			}
		}
	}
}
MOTION
Frames: 11
Frame Time: 0.016667
2.663190 19.498120 -3.965820 2.407873 -50.937895 -46.142249 -18.721107 17.602791 -0.495518 7.906644 3.098320 9.601771 14.484632 6.360773 61.434322 3.536068 10.074409 0.310843 -2.730960 -0.962440 -2.082600 17.197727 -2.218829 -1.792067 -0.796592 7.825454 5.535474 0.629630 -9.727312 55.041174 -1.274300 -7.797138 -0.587798 -1.734820 -0.256690 0.610010 12.589054 -33.255466 -14.263099 -70.140305 43.703916 27.045007 60.696448 30.035514 39.306028 8.206319 13.344209 -35.747822 41.498994 -20.419697 71.500604 -69.265500 8.939170 -39.342610 18.933346 -52.817887 25.331144 -5.503700 18.065445 -11.052613 160.088153 10.330909 -34.919945 -2.503843 5.781016 -0.534190 -1.044650 1.610530 -1.233880 -33.446164 32.952565 1.676213 -14.908237 -54.746078 -10.834785 -141.929716 37.960329 -95.678096 5.296530 -2.592051 1.087910 -0.319920 1.584170 2.028010 
2.653720 19.461980 -3.930160 0.321122 -50.196175 -41.382284 -18.710905 17.714431 -0.179727 7.277492 0.738144 5.377692 12.740245 7.502463 64.097593 3.483026 10.287528 0.157954 -2.622430 -0.833490 -1.856300 17.135513 -2.049024 -1.571437 -1.993780 8.156037 1.320478 4.717055 -12.049327 55.153098 -1.360264 -7.955579 -0.706540 -1.664950 -0.435890 0.609190 11.899259 -32.229492 -13.797465 -68.595007 43.519423 27.307969 61.022389 28.761445 35.660547 8.055178 13.513691 -38.217814 45.263398 -23.472322 71.545394 -71.965890 10.695150 -37.012300 17.083326 -52.502401 25.952811 -4.439827 18.603435 -11.734367 156.348002 8.931831 -41.755768 -2.417871 5.808215 -0.493070 -1.065800 1.738410 -1.274760 -32.396525 32.260944 2.640456 -11.327267 -49.873179 -14.026120 -136.450653 37.322596 -89.394834 5.234754 -2.545572 1.110950 -0.364780 1.476540 1.935750 
2.699050 19.332920 -3.979570 0.575342 -49.740608 -44.659297 -18.701112 17.514627 -0.260679 7.566054 1.697941 7.743177 14.498330 6.533531 65.059554 3.612094 10.344249 0.210116 -2.560570 -0.796360 -1.864980 17.085062 -2.400494 -1.508263 -2.596707 8.846227 2.762464 5.027146 -12.899783 57.672289 -1.484863 -8.481468 -0.835914 -1.657630 -0.439110 0.584580 11.847481 -32.055644 -14.014547 -63.072659 43.165374 35.869517 54.237263 30.166891 35.445057 10.233650 14.684710 -36.660393 40.905780 -20.034056 74.832074 -72.068910 9.273680 -38.586430 15.423666 -53.525317 26.674257 -3.812754 21.152097 -14.182890 152.759891 8.298196 -44.418533 -2.710063 5.873943 -0.477850 -1.130380 1.734410 -1.201900 -33.557502 31.849980 3.004378 -5.377645 -45.841099 -18.307730 -129.232030 32.637687 -76.311468 5.286158 -2.451052 1.123900 -0.352250 1.419180 1.973120 
2.728860 19.227680 -4.076540 2.832761 -47.445926 -51.486914 -18.815569 17.245556 -0.240082 7.330036 3.764334 12.383335 15.534521 5.940063 65.102770 3.749799 10.388589 0.316640 -2.598190 -0.842450 -2.029560 16.863274 -3.034024 -1.519196 -4.632036 9.087624 6.964851 5.310956 -13.759031 58.892567 -1.552808 -8.918461 -0.905416 -1.685260 -0.330380 0.555820 11.267187 -31.594627 -13.987786 -60.638786 41.989483 42.415759 49.341836 31.131599 38.369254 12.285900 13.761895 -32.113430 30.682721 -14.416340 80.472101 -66.404250 4.286400 -44.728470 16.028969 -55.234680 25.243627 -5.061771 23.347049 -17.573561 150.193681 8.291293 -43.037179 -3.260628 5.887555 -0.450580 -1.187940 1.656520 -1.138660 -36.106616 34.056128 2.859560 -1.033265 -45.549326 -21.122119 -124.211885 28.714444 -66.905169 5.393660 -2.312669 1.092220 -0.281020 1.461700 2.039770 
2.741340 19.166560 -4.097620 4.240359 -48.357069 -55.104678 -18.651959 16.920668 -0.228383 8.299708 4.859745 14.932352 14.215075 7.265120 65.570844 3.809658 10.517460 0.292285 -2.574790 -0.809450 -2.026730 16.944944 -3.457372 -1.376208 -4.618553 9.699961 8.695644 5.359289 -13.930506 59.864399 -1.612810 -9.159773 -0.987552 -1.668830 -0.344240 0.563350 10.862148 -31.176270 -13.852197 -61.301110 42.009858 43.397018 46.958638 30.984909 39.167775 13.086777 13.689366 -30.720498 27.465998 -12.115514 81.499937 -64.884400 3.789440 -45.580540 15.320295 -55.796320 24.446831 -5.643692 25.541568 -18.630188 150.023710 8.359654 -41.473640 -3.437639 5.896028 -0.456230 -1.201200 1.658060 -1.132590 -36.910001 35.162450 3.668238 1.379173 -42.257435 -23.367275 -122.512667 26.267176 -64.164156 5.374734 -2.394851 1.105650 -0.305440 1.443820 2.043310 
2.748770 19.110980 -4.103050 3.799322 -49.188043 -54.782564 -18.576535 16.893742 -0.299066 9.341024 4.948942 14.229450 13.826891 7.959298 66.193101 3.806210 10.644931 0.273994 -2.544110 -0.802680 -1.979620 17.022784 -3.370800 -1.224982 -3.782763 10.583532 7.818504 6.305457 -14.531197 61.384028 -1.678914 -9.422538 -1.058234 -1.648370 -0.330510 0.537510 10.952920 -31.239966 -13.876744 -60.478219 42.874572 43.294171 47.519347 29.942543 39.211921 13.197531 13.282801 -31.068659 24.748259 -10.321898 81.205972 -63.511070 4.951090 -43.089580 16.416234 -55.689807 23.082575 -6.693107 25.303245 -18.386457 152.749942 10.285069 -34.704663 -3.557674 5.729524 -0.441400 -1.200100 1.649690 -1.117230 -38.161885 34.635376 4.645028 2.079300 -38.834247 -24.705963 -122.027595 24.653634 -62.113336 5.360450 -2.442927 1.077910 -0.278560 1.410850 2.028880 
2.757600 19.067840 -4.123450 4.427097 -48.537926 -55.925824 -18.558587 16.779486 -0.139082 8.994998 4.329709 14.686384 12.465360 8.911470 67.494283 3.845995 10.869870 0.194812 -2.580940 -0.857360 -2.034930 16.992042 -3.532355 -1.226702 -4.845876 10.439882 7.636198 6.191139 -14.991733 62.374057 -1.694612 -9.618947 -1.144519 -1.680850 -0.332720 0.569090 10.474429 -30.639753 -13.715789 -60.943910 42.866690 44.870944 45.885061 30.720495 37.717545 12.581748 14.041038 -31.657282 28.713014 -12.814658 80.022878 -65.500900 4.082290 -44.463470 15.419361 -54.602293 24.030392 -5.734547 25.282375 -16.607231 153.944991 9.103998 -39.576410 -3.240828 5.861001 -0.445670 -1.207410 1.630220 -1.142780 -36.472069 34.599775 4.829816 3.624422 -38.820761 -25.079557 -125.165176 22.670859 -63.975191 5.328095 -2.574611 1.094640 -0.314330 1.472620 2.035460 
2.751640 19.051500 -4.115670 3.841569 -48.587362 -53.736785 -18.633955 16.903567 -0.120186 9.330173 2.693443 12.456007 10.630814 10.388985 68.874449 3.822254 11.188796 0.113012 -2.653250 -0.971730 -2.013280 17.009230 -3.037877 -1.340366 -4.765690 10.398923 5.631123 6.316255 -15.387410 63.247875 -1.699720 -9.694224 -1.165395 -1.728300 -0.305420 0.547200 10.813914 -31.006044 -13.880058 -62.899192 44.159347 41.618781 48.773028 30.563675 36.611339 10.033285 14.860456 -33.927133 36.263325 -17.274259 76.479311 -66.810160 5.250940 -45.576830 18.284878 -54.184506 23.033713 -7.395576 22.937305 -14.128329 156.616709 8.461264 -43.652437 -2.808023 5.801775 -0.399720 -1.189120 1.611630 -1.188520 -35.030102 33.341250 5.358382 5.502754 -39.492677 -24.665453 -130.063385 22.992209 -71.303792 5.199289 -2.611615 1.026120 -0.275170 1.520730 1.982990 
2.719570 19.054040 -4.055510 2.925527 -51.112146 -49.031936 -18.426065 16.883623 -0.009662 10.358272 0.593340 8.395453 7.016063 13.533968 69.973980 3.599071 11.720977 -0.170079 -2.680250 -1.115220 -1.920580 17.293826 -2.464362 -1.253845 -3.272828 10.936964 0.753653 5.937828 -15.126846 64.978972 -1.693840 -9.743997 -1.253459 -1.733810 -0.352250 0.520970 11.382577 -31.407443 -13.996046 -66.384116 46.526569 35.688946 53.361689 31.394811 31.682157 7.920649 14.115354 -39.618983 42.025785 -21.176910 75.125917 -70.405810 8.468730 -40.529660 18.483413 -52.098820 24.391343 -5.136505 17.939472 -10.821091 159.319170 8.246784 -44.557239 -2.225673 5.671011 -0.268190 -1.190170 1.604380 -1.297210 -32.944256 30.720106 5.423219 1.879691 -38.948409 -22.778798 -136.274883 25.492422 -81.159068 4.944855 -2.611296 0.924900 -0.250250 1.623750 1.858330 
2.689600 19.075210 -4.001400 2.666833 -52.931231 -46.798148 -18.094238 16.617842 0.269100 11.131981 -0.787224 7.061091 2.953536 16.545139 69.462024 3.532706 12.098419 -0.301010 -2.657650 -1.161620 -1.785440 17.569694 -2.553366 -1.112116 -2.640132 10.781996 -1.660308 5.163323 -14.439307 65.141779 -1.652652 -9.607130 -1.250816 -1.711790 -0.391720 0.467650 11.123802 -30.848423 -13.733681 -69.370733 46.661522 33.002547 55.351128 29.396549 29.673278 6.760919 13.836713 -41.147474 45.684937 -22.267550 74.423261 -75.755490 10.536890 -39.965470 16.353416 -48.745252 24.618353 -3.168928 16.624885 -8.417588 163.152868 7.279351 -44.569993 -1.853821 5.480007 -0.224250 -1.185350 1.592750 -1.327120 -30.769004 29.420220 7.276374 -2.981769 -35.350758 -21.415179 -142.209510 26.472356 -94.314130 4.594939 -2.742343 0.845880 -0.225770 1.604000 1.777310 
2.658250 19.103450 -3.961340 1.800660 -54.840257 -45.518514 -17.778791 16.207423 0.563859 13.063743 -2.093696 7.533124 -2.281281 20.186302 68.006452 3.483602 12.542085 -0.507546 -2.657700 -1.204840 -1.622840 17.833105 -2.665537 -0.979170 -1.293705 10.433016 -2.030997 5.398664 -14.495882 64.176529 -1.652033 -9.485430 -1.295053 -1.714810 -0.504580 0.506190 10.858146 -30.278347 -13.549480 -72.298405 45.731414 30.423765 56.925241 27.736604 29.388587 5.689425 13.385052 -42.490971 50.884825 -25.899061 73.213080 -78.873770 12.412960 -39.409070 14.971226 -47.331577 24.213114 -2.462644 17.397079 -7.200498 166.173790 6.702442 -41.991549 -1.658433 5.393173 -0.170060 -1.164260 1.648850 -1.433760 -28.624865 29.865668 9.262582 -7.751815 -34.103250 -18.988923 -147.831264 26.035996 -105.453112 4.293242 -2.872782 0.825420 -0.303980 1.611400 1.660480 
